<?xml version="1.0" encoding="UTF-8" standalone="no"?>
<svg width="27px" height="18px" viewBox="0 0 27 18" version="1.1" xmlns="http://www.w3.org/2000/svg" xmlns:xlink="http://www.w3.org/1999/xlink">
    <!-- Generator: Sketch 45.1 (43504) - http://www.bohemiancoding.com/sketch -->
    <title>Combined Shape</title>
    <desc>Created with Sketch.</desc>
    <defs></defs>
    <g id="Page-1" stroke="none" stroke-width="1" fill="none" fill-rule="evenodd">
        <g id="Projects-Copy-8" transform="translate(-1283.000000, -409.000000)" fill="#223322">
            <g id="Group-3" transform="translate(1231.000000, 378.000000)">
                <g id="Group-5" transform="translate(52.000000, 31.000000)">
                    <path d="M23.5857864,10 L1.5,10 C0.94771525,10 0.5,9.55228475 0.5,9 C0.5,8.44771525 0.94771525,8 1.5,8 L23.5857864,8 L17.7928932,2.20710678 C17.4023689,1.81658249 17.4023689,1.18341751 17.7928932,0.792893219 C18.1834175,0.402368927 18.8165825,0.402368927 19.2071068,0.792893219 L26.2071068,7.79289322 C26.4664526,8.05223907 26.5535678,8.41859534 26.4684523,8.74983153 C26.4890464,8.82978723 26.5,8.91361444 26.5,9 C26.5,9.08638556 26.4890464,9.17021277 26.4684523,9.25016847 C26.5535678,9.58140466 26.4664526,9.94776093 26.2071068,10.2071068 L19.2071068,17.2071068 C18.8165825,17.5976311 18.1834175,17.5976311 17.7928932,17.2071068 C17.4023689,16.8165825 17.4023689,16.1834175 17.7928932,15.7928932 L23.5857864,10 Z" id="Combined-Shape"></path>
                </g>
            </g>
        </g>
    </g>
</svg>